<?xml version="1.0" encoding="UTF-8"?>
<svg version="1.1" xmlns="http://www.w3.org/2000/svg" width="583" height="594">
<path d="M0 0 C1.06412109 0.08523926 2.12824219 0.17047852 3.22460938 0.25830078 C72.88559506 6.06338292 143.869456 37.0651207 190.0625 90.78515625 C192.26296454 93.30060664 194.5379925 95.73885052 196.8125 98.1875 C230.18029302 134.93239594 249.9003549 182.68846755 259 231 C259.17789063 231.89380371 259.35578125 232.78760742 259.5390625 233.70849609 C265.23020301 263.23128747 264.0071679 296.6548632 258 326 C257.80744629 326.94762207 257.61489258 327.89524414 257.41650391 328.87158203 C256.13824879 334.97025787 254.62979103 340.98684031 253 347 C252.79181641 347.79712402 252.58363281 348.59424805 252.36914062 349.41552734 C244.71724172 378.45154066 231.19837991 410.55217631 212 434 C210.76198848 435.70193447 209.53309767 437.41053367 208.3125 439.125 C202.36753567 447.32000648 196.14806609 455.07889601 188.87109375 462.12890625 C187.10992458 463.89007542 185.52822374 465.71046481 183.9375 467.625 C175.07382916 477.88182183 164.5706288 486.77424137 153.66113281 494.77148438 C151.93162662 496.05056655 150.22702754 497.35851385 148.5234375 498.671875 C138.85627606 506.04779363 128.62533366 512.11324107 118 518 C116.73166228 518.717256 115.46342537 519.43469029 114.1953125 520.15234375 C86.9706448 535.335545 55.85170212 545.63384403 25 550 C23.97495361 550.14646973 23.97495361 550.14646973 22.92919922 550.29589844 C-7.84409717 554.56776992 -42.7026416 555.8548707 -73 548 C-70.28121124 528.12970339 -66.39973763 508.62581066 -61.6953125 489.140625 C-60.34996434 483.55780591 -59.13754299 477.95963651 -57.98413086 472.33447266 C-56.34736442 464.38221505 -54.61738657 456.940468 -51.17578125 449.53515625 C-49.98030587 446.95753657 -49.04425017 444.37483986 -48.125 441.6875 C-46.46567287 437.07228648 -44.58246554 432.59141654 -42.5625 428.125 C-42.28615723 427.49424561 -42.00981445 426.86349121 -41.72509766 426.21362305 C-39.26523203 420.89148447 -36.01274759 417.57332331 -31.44140625 414 C-28.84648691 411.87424207 -26.97557899 409.65801156 -24.9375 407 C-23.64342668 405.31898594 -22.33136608 403.65163506 -21 402 C-20.40316406 401.236875 -19.80632812 400.47375 -19.19140625 399.6875 C-15.11545742 396.54880143 -10.32951111 397.92577235 -5.50390625 398.515625 C-3.85558333 398.75228849 -2.20846166 398.99743661 -0.5625 399.25 C0.75041016 399.45133545 0.75041016 399.45133545 2.08984375 399.65673828 C18.71346324 402.31156414 33.15101676 406.76288032 47.453125 415.8984375 C51.29325066 418.25874175 55.3327273 420.08920313 59.4375 421.9375 C64.94352171 424.42802731 70.04362571 427.13247867 75.0625 430.5 C92.45735836 442.11817973 114.58479326 453.07136165 136 451 C140.78896221 449.66537119 143.04162246 448.12923703 145.9375 444.25 C147.43359375 442.38671875 147.43359375 442.38671875 149 441 C152.5 441.0625 152.5 441.0625 154.52734375 441.51953125 C162.19514436 443.00948303 171.36366096 443.46937119 178 439 C189.861365 427.21771076 193.09462979 411.74984566 193.375 395.6875 C193.33867852 372.70735275 181.69953688 353.82096921 166.3359375 337.48828125 C164.31435018 335.33485128 162.39924367 333.13536746 160.5 330.875 C156.39171079 326.15094847 151.69541581 322.12520789 147 318 C145.3323813 316.48021064 143.66570611 314.95938533 142 313.4375 C138.80757923 310.54840893 135.54872292 307.85881124 132.125 305.25 C122.13984748 297.35293755 114.18681723 287.43327605 107 277 C105.25240138 274.49567627 103.5011717 271.99391615 101.74951172 269.49243164 C100.52979392 267.74863869 99.31253793 266.00312033 98.09814453 264.25561523 C95.37224196 260.34054247 92.61613325 256.49245447 89.671875 252.73828125 C87.36877397 249.69454379 86.12479879 247.16875804 85.375 243.375 C83.87907586 235.98209953 79.76088067 231.4546193 74.1875 226.625 C70.00554471 222.90292695 66.18378167 219.10532514 62.55859375 214.828125 C56.80094972 208.07479816 50.21990152 203.11489066 43 198 C21.78816772 182.62553241 21.78816772 182.62553241 18 175 C18.3125 172 18.3125 172 20 169 C24.30626119 165.72724149 28.98334313 163.51163924 33.82617188 161.15576172 C46.74975922 154.84639704 56.37758005 148.38142278 61.6875 134.5 C66.80266478 118.98950033 70.25632188 100.76896563 64.94921875 84.84765625 C63.86162205 82.73064704 62.88850388 81.45544271 61 80 C54.46671198 78.5437852 48.58687237 80.72159226 43 84 C33.68312752 90.24359857 25.95812497 98.29195483 19.41015625 107.34765625 C18.94480469 107.89292969 18.47945313 108.43820313 18 109 C17.34 109 16.68 109 16 109 C15.75894531 109.70769531 15.51789063 110.41539063 15.26953125 111.14453125 C13.80251591 114.44418729 11.96194213 116.8855402 9.6875 119.6875 C8.92824219 120.64011719 8.16898437 121.59273438 7.38671875 122.57421875 C4.9696847 125.03081146 3.26221752 126.01267399 0 127 C-1.7220573 120.82246111 -1.06154309 114.62653843 -0.4855957 108.31347656 C0.77454292 93.29134449 -3.88402914 81.94160682 -11 69 C-11.55429687 67.97777344 -12.10859375 66.95554687 -12.6796875 65.90234375 C-16.30664757 59.4989886 -16.30664757 59.4989886 -22 55 C-25.10573918 54.32483931 -26.92365329 54.36363797 -29.69140625 56 C-34.19080803 59.54315308 -37.26834849 63.93536729 -40.42578125 68.66796875 C-42 71 -42 71 -44.375 73.875 C-47.0827445 77.41589666 -47.06157222 80.41479705 -46.8125 84.75 C-46.74597799 90.3304575 -47.96078985 95.26976043 -49.43896484 100.59375 C-50.83413506 105.8076026 -51.48390832 110.87929356 -51.9375 116.25 C-52.99571848 127.75598754 -57.17302155 136.70967881 -64 146 C-66 145 -66 145 -67 142 C-67.02481929 140.18748285 -66.99103411 138.37386728 -66.921875 136.5625 C-66.89609375 135.50289062 -66.8703125 134.44328125 -66.84375 133.3515625 C-66.78123626 131.11669624 -66.70309983 128.88221251 -66.609375 126.6484375 C-66.58875 125.58882813 -66.568125 124.52921875 -66.546875 123.4375 C-66.51432617 122.46683594 -66.48177734 121.49617188 -66.44824219 120.49609375 C-66.77915908 117.80816851 -66.77915908 117.80816851 -69.18969727 116.13452148 C-75.229463 113.69626318 -81.56422981 116.06354063 -87.41259766 118.31201172 C-91.08841672 119.94326818 -94.70284869 121.6664376 -98.3125 123.4375 C-99.62940681 124.07042258 -100.94696269 124.70199628 -102.26513672 125.33227539 C-104.9179846 126.60321898 -107.56670359 127.88221265 -110.21240234 129.16796875 C-113.67661967 130.84876015 -117.15729165 132.49242697 -120.64453125 134.125 C-136.30791927 141.47033881 -149.79725546 148.50399031 -162 161.0625 C-164 163 -164 163 -166 163 C-166.25394531 163.56203125 -166.50789062 164.1240625 -166.76953125 164.703125 C-169.19952844 169.23911975 -172.73850825 173.0430431 -176 177 C-176.53625 177.68578125 -177.0725 178.3715625 -177.625 179.078125 C-181.10879253 183.36318981 -185.03267532 186.69387875 -189.4375 190 C-201.81000471 199.3003726 -209.7090855 210.44460853 -218.125 223.25 C-221.19246529 227.90983158 -224.53610031 232.20414543 -228.07421875 236.51171875 C-230.03511579 239.04537274 -231.70547453 241.6419829 -233.375 244.375 C-235.96973403 248.57882538 -238.85831463 252.37488995 -242.0625 256.125 C-248.74189258 263.98559566 -253.66107858 271.9642707 -258.10986328 281.24121094 C-263.78177627 292.9887318 -263.78177627 292.9887318 -269 296 C-271.578125 296.73046875 -271.578125 296.73046875 -274.25 297.1875 C-275.58804688 297.42533203 -275.58804688 297.42533203 -276.953125 297.66796875 C-277.62859375 297.77753906 -278.3040625 297.88710938 -279 298 C-277.02 299.485 -277.02 299.485 -275 301 C-275.44131164 306.28771585 -277.44973958 309.66865922 -280.5625 313.8125 C-281.00706543 314.41980957 -281.45163086 315.02711914 -281.90966797 315.65283203 C-285.65097894 320.69512012 -289.68177825 325.44053681 -294 330 C-294.66 329.67 -295.32 329.34 -296 329 C-296.5625 326.76953125 -296.5625 326.76953125 -297 323.8125 C-297.16371094 322.72066406 -297.32742188 321.62882812 -297.49609375 320.50390625 C-297.66238281 319.34761719 -297.82867187 318.19132812 -298 317 C-298.17660156 315.89527344 -298.35320312 314.79054688 -298.53515625 313.65234375 C-303.18692302 283.63983371 -302.09068963 251.70943577 -296 222 C-295.75894531 220.74058594 -295.51789063 219.48117188 -295.26953125 218.18359375 C-288.12891338 183.24462957 -272.90811888 146.17328221 -251 118 C-250.0837336 116.74995813 -249.17125768 115.4971328 -248.26171875 114.2421875 C-242.38380408 106.1788943 -236.20261952 98.68406027 -229.30078125 91.4765625 C-226.99830329 89.23088237 -226.99830329 89.23088237 -226 87 C-225.34 87 -224.68 87 -224 87 C-223.77828125 86.45472656 -223.5565625 85.90945312 -223.328125 85.34765625 C-221.57929892 82.25634897 -219.25490353 79.91504952 -216.75 77.4375 C-216.22059814 76.9122876 -215.69119629 76.3870752 -215.14575195 75.84594727 C-209.16891387 70.03307323 -202.67142079 64.98304089 -196 60 C-195.08879395 59.31357422 -195.08879395 59.31357422 -194.15917969 58.61328125 C-159.20839492 32.33117453 -120.06405517 13.69036022 -77 5 C-75.20236206 4.63007935 -75.20236206 4.63007935 -73.3684082 4.25268555 C-63.46245652 2.29802958 -53.62379474 1.05993429 -43.5625 0.25 C-42.78141876 0.185849 -42.00033752 0.121698 -41.19558716 0.05560303 C-27.36398616 -1.05449536 -13.84092958 -1.19803017 0 0 Z " fill="#8AA6F8" transform="translate(310,11)"/>
</svg>
