<?xml version="1.0" encoding="UTF-8"?>
<svg version="1.1" xmlns="http://www.w3.org/2000/svg" width="2288" height="594">
<path d="M0 0 C26.73 0 53.46 0 81 0 C81 21.78 81 43.56 81 66 C86.94 64.02 92.88 62.04 99 60 C121.97822187 54.78844452 146.95229912 58.39858802 167 71 C170.14367442 73.18296752 173.09716128 75.50710415 176 78 C176.59296875 78.49757813 177.1859375 78.99515625 177.796875 79.5078125 C186.8951466 87.81311548 194.14865576 100.46748609 197.6015625 112.234375 C197.99722412 113.57580566 197.99722412 113.57580566 198.40087891 114.94433594 C198.59858887 115.62270508 198.79629883 116.30107422 199 117 C199.01030746 116.3257045 199.02061493 115.651409 199.03123474 114.9566803 C199.13905769 107.96556418 199.25367443 100.97458333 199.37231445 93.98364258 C199.41574124 91.37136656 199.45741038 88.75906072 199.49731445 86.14672852 C199.55483007 82.40111281 199.61857764 78.65564831 199.68359375 74.91015625 C199.70030624 73.73413345 199.71701874 72.55811066 199.73423767 71.34645081 C199.75418289 70.26540573 199.77412811 69.18436066 199.79467773 68.07055664 C199.81799416 66.63493126 199.81799416 66.63493126 199.84178162 65.17030334 C200 63 200 63 201 62 C202.77991924 61.90629376 204.56356739 61.88255729 206.34594727 61.88647461 C208.05760826 61.88658791 208.05760826 61.88658791 209.80384827 61.88670349 C211.0454924 61.89186478 212.28713654 61.89702606 213.56640625 61.90234375 C215.46204567 61.90446617 215.46204567 61.90446617 217.39598083 61.90663147 C220.76124889 61.91129418 224.1264499 61.9202852 227.49169922 61.93133545 C230.9234967 61.94155154 234.35530109 61.94612951 237.78710938 61.95117188 C244.52475824 61.9622262 251.26237525 61.9789829 258 62 C259.0063655 64.43504509 260.00526413 66.87270864 261 69.3125 C261.28617188 70.00279297 261.57234375 70.69308594 261.8671875 71.40429688 C263.08910744 74.41545674 264 76.71886984 264 80 C267.34125239 78.1677003 270.19644925 76.03829407 273.125 73.625 C286.00363049 63.56821112 301.36278448 61.47599987 317.24584961 61.71875 C319.35613187 61.75065976 321.46566932 61.75981161 323.57617188 61.765625 C333.83533706 61.83533706 333.83533706 61.83533706 335 63 C335.15873955 65.21687994 335.25133837 67.43855298 335.31640625 69.66015625 C335.33718735 70.32462265 335.35796844 70.98908905 335.37937927 71.6736908 C335.44493658 73.80318543 335.50378785 75.93280668 335.5625 78.0625 C335.60567939 79.50326847 335.64929349 80.94402399 335.69335938 82.38476562 C335.80062393 85.9230404 335.90187371 89.46145869 336 93 C336.52529297 92.26031982 337.05058594 91.52063965 337.59179688 90.75854492 C338.29369141 89.77990479 338.99558594 88.80126465 339.71875 87.79296875 C340.40904297 86.82641357 341.09933594 85.8598584 341.81054688 84.86401367 C354.79302286 67.88169589 375.67390028 61.88924153 395.97460938 58.87304688 C426.71002325 54.87813583 456.05848515 59.70565677 482 77 C482 77.66 482 78.32 482 79 C482.66 79 483.32 79 484 79 C484 79.66 484 80.32 484 81 C484.66 81 485.32 81 486 81 C486 81.66 486 82.32 486 83 C486.66 83 487.32 83 488 83 C504.46234952 101.79592999 505.63032965 126.12182798 505.390625 149.828125 C505.38314099 152.04155967 505.37745831 154.25500109 505.37347412 156.46844482 C505.35838764 162.22232183 505.31925752 167.9757784 505.2746582 173.72949219 C505.22603532 180.67149165 505.20809042 187.6136337 505.18484497 194.55575562 C505.14639216 205.03746053 505.0696205 215.51824764 505 226 C485.86 226 466.72 226 447 226 C442.5 217 442.5 217 441.75 213 C441.52570313 211.8553125 441.52570313 211.8553125 441.296875 210.6875 C441.19890625 210.130625 441.1009375 209.57375 441 209 C437.68699054 210.81681164 434.84460537 212.92338795 431.9375 215.3125 C421.92801095 223.11595034 411.18609147 226.3972751 399 229 C398.20674316 229.1757959 397.41348633 229.3515918 396.59619141 229.53271484 C375.61215528 233.30960455 353.63609855 229.06784762 335.828125 217.6015625 C327.37228436 211.12872874 322.21593473 200.21203969 320 190 C318.62537588 173.69411389 320.80418397 160.23153127 331 147 C341.692433 134.99121996 357.56477392 131.33753705 373 130 C377.12564746 129.86951345 381.24764205 129.88329 385.375 129.90234375 C386.5400708 129.9037587 387.7051416 129.90517365 388.90551758 129.90663147 C392.6037052 129.91220084 396.30183087 129.92474769 400 129.9375 C402.51692621 129.94251896 405.03385337 129.94708117 407.55078125 129.95117188 C413.70054174 129.96216024 419.85026644 129.97886772 426 130 C425.89770343 127.73502249 425.77862737 125.47079806 425.65234375 123.20703125 C425.58781006 121.94608643 425.52327637 120.6851416 425.45678711 119.38598633 C425.02406898 116.17841407 424.81759981 114.89734147 422.5625 112.6875 C418.36159391 109.92104965 414.99412116 109.34092453 410 110 C406.55636106 111.46209298 406.55636106 111.46209298 404 114 C403.34 115.98 402.68 117.96 402 120 C379.89 120 357.78 120 335 120 C335 124.29 335 128.58 335 133 C333.15847731 134.84152269 330.16136084 134.17442003 327.69140625 134.2109375 C326.38623047 134.23929688 325.08105469 134.26765625 323.73632812 134.296875 C321.66317699 134.33775883 319.59023004 134.37464258 317.5168457 134.40136719 C301.62835469 134.62304365 301.62835469 134.62304365 288 142 C283.50483107 149.20692845 281.90284988 155.44873071 281.79467773 163.90161133 C281.78464501 164.58615481 281.77461229 165.2706983 281.76427555 165.97598553 C281.73305158 168.17796707 281.70818635 170.37996673 281.68359375 172.58203125 C281.66517542 173.94706792 281.64633795 175.31209901 281.6270752 176.67712402 C281.55880895 181.72218324 281.49864018 186.7673494 281.4375 191.8125 C281.293125 203.094375 281.14875 214.37625 281 226 C254.27 226 227.54 226 200 226 C199.67 207.85 199.34 189.7 199 171 C197.515 175.95 197.515 175.95 196 181 C192.2185825 189.95095029 187.48153624 198.69895918 181 206 C180.34 206 179.68 206 179 206 C179 206.66 179 207.32 179 208 C178.34 208 177.68 208 177 208 C177 208.66 177 209.32 177 210 C158.06230516 227.09207203 134.74467002 231.41143527 110.03466797 230.23193359 C94.75379963 229.06404744 81.85385564 223.02817605 69 215 C67.35 214.01 65.7 213.02 64 212 C62.02 216.62 60.04 221.24 58 226 C38.86 226 19.72 226 0 226 C0 203.89 0 181.78 0 159 C-38.28 159 -76.56 159 -116 159 C-113.36911977 168.22403339 -113.36911977 168.22403339 -106.5 174.3125 C-99.82655674 177.530053 -93.172429 178.13597744 -85.97265625 176.17578125 C-80.52341492 174.35909854 -80.52341492 174.35909854 -76 171 C-73.59073766 170.81234227 -71.29751603 170.74799019 -68.88818359 170.77294922 C-68.15637375 170.77265717 -67.4245639 170.77236511 -66.670578 170.77206421 C-64.24641146 170.77345999 -61.82255049 170.7890326 -59.3984375 170.8046875 C-57.71977913 170.80841675 -56.04111859 170.81126414 -54.36245728 170.81326294 C-49.94008393 170.82090631 -45.51784155 170.84056078 -41.09552002 170.8626709 C-36.58453137 170.88311421 -32.0735216 170.89226141 -27.5625 170.90234375 C-18.70827573 170.92380606 -9.85414875 170.95795045 -1 171 C-1.46877658 172.60818958 -1.94114649 174.21533202 -2.41503906 175.82202148 C-2.67770569 176.71710922 -2.94037231 177.61219696 -3.21099854 178.53440857 C-8.6843564 195.63838726 -24.79280364 209.63197591 -40 218 C-49.29057521 222.68694938 -58.85615577 225.75301427 -69 228 C-70.52173828 228.3403125 -70.52173828 228.3403125 -72.07421875 228.6875 C-101.08704256 233.92946566 -132.92422709 230.05762696 -158 214 C-160.70262325 211.98153732 -163.32062033 209.90025959 -165.90625 207.734375 C-168.08574483 205.86801017 -168.08574483 205.86801017 -171 204 C-171 203.34 -171 202.68 -171 202 C-171.66 202 -172.32 202 -173 202 C-176.3 197.38 -179.6 192.76 -183 188 C-183.33 200.54 -183.66 213.08 -184 226 C-186.98621359 227.49310679 -189.69031093 227.12602865 -193.02258301 227.12698364 C-193.7538366 227.12854363 -194.48509019 227.13010362 -195.23850298 227.13171089 C-197.70133989 227.1357158 -200.1641157 227.1325332 -202.62695312 227.12939453 C-204.38752783 227.1307488 -206.14810226 227.13252887 -207.90867615 227.13470459 C-212.69986855 227.13927591 -217.49103949 227.13749059 -222.28223228 227.1343255 C-227.28748001 227.13180036 -232.29272584 227.13413988 -237.29797363 227.13571167 C-245.70467459 227.13753291 -254.11136678 227.13512824 -262.51806641 227.13037109 C-272.24855328 227.12492856 -281.9790192 227.12669125 -291.70950556 227.1321975 C-300.05176044 227.13672992 -308.39400899 227.13737854 -316.73626471 227.13475883 C-321.72404671 227.13319677 -326.71181885 227.13300036 -331.69960022 227.13629532 C-336.3879145 227.13917589 -341.07620167 227.13719488 -345.76451302 227.13140106 C-347.48911049 227.13007447 -349.21371023 227.13046588 -350.93830681 227.13266373 C-353.28470808 227.13537917 -355.63102139 227.13198923 -357.97741699 227.12698364 C-359.29298332 227.12660662 -360.60854965 227.12622959 -361.96398163 227.12584114 C-365 227 -365 227 -367 226 C-367.1627413 218.18504352 -367.28684436 210.37048948 -367.3626852 202.55426025 C-367.39910066 198.9240705 -367.44842706 195.29504632 -367.52807617 191.66552734 C-367.60456823 188.15760995 -367.64607806 184.65080783 -367.6641407 181.14212036 C-367.68322437 179.1633012 -367.73780285 177.18492623 -367.79307556 175.20678711 C-367.79571942 169.10285485 -367.70467098 165.0038524 -363.59667969 160.27416992 C-362.42045495 159.1583866 -361.22387684 158.06329795 -360 157 C-359.26394531 156.17113281 -358.52789063 155.34226562 -357.76953125 154.48828125 C-353.5468797 149.79363671 -349.28809441 145.13477124 -345 140.5 C-335.59553228 130.35169605 -335.59553228 130.35169605 -326.5625 119.875 C-325.716875 118.92625 -324.87125 117.9775 -324 117 C-323.34 117 -322.68 117 -322 117 C-321.731875 116.41734375 -321.46375 115.8346875 -321.1875 115.234375 C-319.98519009 112.97213399 -318.66174087 111.19423682 -317 109.25 C-316.484375 108.63640625 -315.96875 108.0228125 -315.4375 107.390625 C-314 106 -314 106 -312 106 C-311.773125 105.46375 -311.54625 104.9275 -311.3125 104.375 C-309.54429911 101.17539839 -307.46329797 98.70962777 -305 96 C-304.34 96 -303.68 96 -303 96 C-303 95.34 -303 94.68 -303 94 C-302.34 94 -301.68 94 -301 94 C-300.71125 93.401875 -300.4225 92.80375 -300.125 92.1875 C-299 90 -299 90 -297 87 C-298.06901406 85.70586798 -298.06901406 85.70586798 -300.58117676 85.88647461 C-301.73065796 85.89171143 -302.88013916 85.89694824 -304.06445312 85.90234375 C-305.36249878 85.90564697 -306.66054443 85.9089502 -307.9979248 85.91235352 C-308.69586655 85.91647247 -309.39380829 85.92059143 -310.11289978 85.92483521 C-312.28918435 85.93754634 -314.46540834 85.94410078 -316.64172363 85.94897461 C-321.26117618 85.96043058 -325.88057908 85.97967383 -330.5 86 C-335.85073996 86.02354409 -341.20145141 86.04395573 -346.55223083 86.05593872 C-348.70221733 86.06244993 -350.85211752 86.07495834 -353.0020752 86.08764648 C-354.30012085 86.09094971 -355.5981665 86.09425293 -356.93554688 86.09765625 C-358.08502808 86.10289307 -359.23450928 86.10812988 -360.41882324 86.11352539 C-363 86 -363 86 -364 85 C-364.09436529 82.76070114 -364.11742327 80.5183825 -364.11352539 78.27709961 C-364.11367142 77.5746965 -364.11381744 76.8722934 -364.1139679 76.14860535 C-364.11326872 73.81648722 -364.10547617 71.484448 -364.09765625 69.15234375 C-364.09579208 67.53951562 -364.09436818 65.92668693 -364.09336853 64.31385803 C-364.08954323 60.06084643 -364.07971285 55.80786876 -364.06866455 51.55487061 C-364.05845069 47.2182257 -364.05387096 42.88157533 -364.04882812 38.54492188 C-364.03809059 30.02993231 -364.02101403 21.51497037 -364 13 C-340.80895512 12.97667356 -317.61791217 12.95902208 -294.42685795 12.94818783 C-283.65964936 12.94302433 -272.89244806 12.9359806 -262.12524414 12.92456055 C-252.74414755 12.91461536 -243.36305623 12.90814697 -233.98195451 12.90591151 C-229.01149782 12.90460412 -224.0410562 12.9015165 -219.07060432 12.89426994 C-214.39791878 12.88751233 -209.72525459 12.88538251 -205.05256462 12.88689232 C-203.33238484 12.88661587 -201.61220438 12.88460922 -199.89202881 12.88079453 C-197.55393339 12.8758613 -195.21591996 12.87700032 -192.87782288 12.87974548 C-191.56611146 12.87882369 -190.25440004 12.8779019 -188.9029398 12.87695217 C-186 13 -186 13 -185 14 C-184.88531754 15.77282792 -184.8403637 17.55021164 -184.82299805 19.32666016 C-184.80374519 21.03446152 -184.80374519 21.03446152 -184.78410339 22.77676392 C-184.77671646 24.01832245 -184.76932953 25.25988098 -184.76171875 26.5390625 C-184.753647 27.80841644 -184.74557526 29.07777039 -184.73725891 30.3855896 C-184.72339407 33.08082752 -184.71238597 35.77594215 -184.70483398 38.47119141 C-184.6938105 41.91112562 -184.65946748 45.35040558 -184.61966228 48.79010963 C-184.58709095 52.08136209 -184.58270633 55.37267345 -184.57421875 58.6640625 C-184.55671066 59.89347565 -184.53920258 61.12288879 -184.52116394 62.38955688 C-184.54127319 70.34541467 -185.3967334 74.8423847 -190.67578125 80.93359375 C-191.21589844 81.42988281 -191.75601563 81.92617187 -192.3125 82.4375 C-195.41967832 85.40643521 -198.2452839 88.51250897 -201.05078125 91.765625 C-203.33020694 94.37851376 -205.66212353 96.93930021 -208 99.5 C-210.82577384 102.59731967 -213.63218779 105.7040415 -216.375 108.875 C-220.02196641 113.07506084 -223.81120664 117.13943132 -227.59277344 121.21777344 C-230.86292014 124.75068146 -234.07037871 128.32651655 -237.21875 131.96875 C-239.4854941 134.55363362 -241.80559491 137.08729796 -244.125 139.625 C-250.5746993 145.60589518 -250.5746993 145.60589518 -254 153 C-234.2 153 -214.4 153 -194 153 C-193.67 144.75 -193.34 136.5 -193 128 C-189.44556048 112.52773386 -183.59519388 99.93245136 -173 88 C-172.40832031 87.31421875 -171.81664062 86.6284375 -171.20703125 85.921875 C-153.43574241 66.67280308 -125.15779956 58.946241 -99.76171875 57.74609375 C-71.22038357 57.3226318 -43.63262087 64.6382336 -22.37890625 84.52734375 C-11.43158758 95.90608384 -5.95101864 108.14694409 -1 123 C-0.67 82.41 -0.34 41.82 0 0 Z M-111.80859375 117.12890625 C-114.6152442 121.06340238 -116 123.05289701 -116 128 C-102.14 128 -88.28 128 -74 128 C-75.23716952 120.5769829 -77.22911954 117.34922474 -82.875 112.5625 C-91.81437272 108.02404923 -105.23859811 109.39532607 -111.80859375 117.12890625 Z M83.19140625 131.12109375 C79.37952795 137.13261329 79.287842 143.0677278 80 150 C81.73519442 156.24462184 85.68225638 160.45483759 91 164 C96.52414475 166.64198227 102.54039057 167.04069552 108.40234375 165.27734375 C114.50729968 162.7683186 118.40745376 159.690854 121.8125 153.9375 C124.22436551 147.58902641 124.20270656 139.83479577 121.4375 133.625 C118.46390836 128.58145234 114.37249726 125.1346726 109.125 122.625 C98.61725981 120.52345196 90.10714474 122.62911857 83.19140625 131.12109375 Z M398 164.6875 C395.31065985 167.79704955 395.071467 169.92638089 395 174 C395.7188184 177.86364889 396.81899428 178.85750614 399.9375 181.3125 C404.75397543 183.79127187 409.72237323 183.65471315 415 183 C419.73165693 181.33515775 422.78642678 178.83843468 426 175 C428.01317218 170.59019427 428.19249284 166.81232093 428 162 C420.23972726 158.11986363 405.26470933 160.601101 398 164.6875 Z " fill="#8BA7F9" transform="translate(972,171)"/>
<path d="M0 0 C1.06412109 0.08523926 2.12824219 0.17047852 3.22460938 0.25830078 C72.88559506 6.06338292 143.869456 37.0651207 190.0625 90.78515625 C192.26296454 93.30060664 194.5379925 95.73885052 196.8125 98.1875 C230.18029302 134.93239594 249.9003549 182.68846755 259 231 C259.17789063 231.89380371 259.35578125 232.78760742 259.5390625 233.70849609 C265.23020301 263.23128747 264.0071679 296.6548632 258 326 C257.80744629 326.94762207 257.61489258 327.89524414 257.41650391 328.87158203 C256.13824879 334.97025787 254.62979103 340.98684031 253 347 C252.79181641 347.79712402 252.58363281 348.59424805 252.36914062 349.41552734 C244.71724172 378.45154066 231.19837991 410.55217631 212 434 C210.76198848 435.70193447 209.53309767 437.41053367 208.3125 439.125 C202.36753567 447.32000648 196.14806609 455.07889601 188.87109375 462.12890625 C187.10992458 463.89007542 185.52822374 465.71046481 183.9375 467.625 C175.07382916 477.88182183 164.5706288 486.77424137 153.66113281 494.77148438 C151.93162662 496.05056655 150.22702754 497.35851385 148.5234375 498.671875 C138.85627606 506.04779363 128.62533366 512.11324107 118 518 C116.73166228 518.717256 115.46342537 519.43469029 114.1953125 520.15234375 C86.9706448 535.335545 55.85170212 545.63384403 25 550 C23.97495361 550.14646973 23.97495361 550.14646973 22.92919922 550.29589844 C-7.84409717 554.56776992 -42.7026416 555.8548707 -73 548 C-70.28121124 528.12970339 -66.39973763 508.62581066 -61.6953125 489.140625 C-60.34996434 483.55780591 -59.13754299 477.95963651 -57.98413086 472.33447266 C-56.34736442 464.38221505 -54.61738657 456.940468 -51.17578125 449.53515625 C-49.98030587 446.95753657 -49.04425017 444.37483986 -48.125 441.6875 C-46.46567287 437.07228648 -44.58246554 432.59141654 -42.5625 428.125 C-42.28615723 427.49424561 -42.00981445 426.86349121 -41.72509766 426.21362305 C-39.26523203 420.89148447 -36.01274759 417.57332331 -31.44140625 414 C-28.84648691 411.87424207 -26.97557899 409.65801156 -24.9375 407 C-23.64342668 405.31898594 -22.33136608 403.65163506 -21 402 C-20.40316406 401.236875 -19.80632812 400.47375 -19.19140625 399.6875 C-15.11545742 396.54880143 -10.32951111 397.92577235 -5.50390625 398.515625 C-3.85558333 398.75228849 -2.20846166 398.99743661 -0.5625 399.25 C0.75041016 399.45133545 0.75041016 399.45133545 2.08984375 399.65673828 C18.71346324 402.31156414 33.15101676 406.76288032 47.453125 415.8984375 C51.29325066 418.25874175 55.3327273 420.08920313 59.4375 421.9375 C64.94352171 424.42802731 70.04362571 427.13247867 75.0625 430.5 C92.45735836 442.11817973 114.58479326 453.07136165 136 451 C140.78896221 449.66537119 143.04162246 448.12923703 145.9375 444.25 C147.43359375 442.38671875 147.43359375 442.38671875 149 441 C152.5 441.0625 152.5 441.0625 154.52734375 441.51953125 C162.19514436 443.00948303 171.36366096 443.46937119 178 439 C189.861365 427.21771076 193.09462979 411.74984566 193.375 395.6875 C193.33867852 372.70735275 181.69953688 353.82096921 166.3359375 337.48828125 C164.31435018 335.33485128 162.39924367 333.13536746 160.5 330.875 C156.39171079 326.15094847 151.69541581 322.12520789 147 318 C145.3323813 316.48021064 143.66570611 314.95938533 142 313.4375 C138.80757923 310.54840893 135.54872292 307.85881124 132.125 305.25 C122.13984748 297.35293755 114.18681723 287.43327605 107 277 C105.25240138 274.49567627 103.5011717 271.99391615 101.74951172 269.49243164 C100.52979392 267.74863869 99.31253793 266.00312033 98.09814453 264.25561523 C95.37224196 260.34054247 92.61613325 256.49245447 89.671875 252.73828125 C87.36877397 249.69454379 86.12479879 247.16875804 85.375 243.375 C83.87907586 235.98209953 79.76088067 231.4546193 74.1875 226.625 C70.00554471 222.90292695 66.18378167 219.10532514 62.55859375 214.828125 C56.80094972 208.07479816 50.21990152 203.11489066 43 198 C21.78816772 182.62553241 21.78816772 182.62553241 18 175 C18.3125 172 18.3125 172 20 169 C24.30626119 165.72724149 28.98334313 163.51163924 33.82617188 161.15576172 C46.74975922 154.84639704 56.37758005 148.38142278 61.6875 134.5 C66.80266478 118.98950033 70.25632188 100.76896563 64.94921875 84.84765625 C63.86162205 82.73064704 62.88850388 81.45544271 61 80 C54.46671198 78.5437852 48.58687237 80.72159226 43 84 C33.68312752 90.24359857 25.95812497 98.29195483 19.41015625 107.34765625 C18.94480469 107.89292969 18.47945313 108.43820313 18 109 C17.34 109 16.68 109 16 109 C15.75894531 109.70769531 15.51789063 110.41539063 15.26953125 111.14453125 C13.80251591 114.44418729 11.96194213 116.8855402 9.6875 119.6875 C8.92824219 120.64011719 8.16898437 121.59273438 7.38671875 122.57421875 C4.9696847 125.03081146 3.26221752 126.01267399 0 127 C-1.7220573 120.82246111 -1.06154309 114.62653843 -0.4855957 108.31347656 C0.77454292 93.29134449 -3.88402914 81.94160682 -11 69 C-11.55429687 67.97777344 -12.10859375 66.95554687 -12.6796875 65.90234375 C-16.30664757 59.4989886 -16.30664757 59.4989886 -22 55 C-25.10573918 54.32483931 -26.92365329 54.36363797 -29.69140625 56 C-34.19080803 59.54315308 -37.26834849 63.93536729 -40.42578125 68.66796875 C-42 71 -42 71 -44.375 73.875 C-47.0827445 77.41589666 -47.06157222 80.41479705 -46.8125 84.75 C-46.74597799 90.3304575 -47.96078985 95.26976043 -49.43896484 100.59375 C-50.83413506 105.8076026 -51.48390832 110.87929356 -51.9375 116.25 C-52.99571848 127.75598754 -57.17302155 136.70967881 -64 146 C-66 145 -66 145 -67 142 C-67.02481929 140.18748285 -66.99103411 138.37386728 -66.921875 136.5625 C-66.89609375 135.50289062 -66.8703125 134.44328125 -66.84375 133.3515625 C-66.78123626 131.11669624 -66.70309983 128.88221251 -66.609375 126.6484375 C-66.58875 125.58882813 -66.568125 124.52921875 -66.546875 123.4375 C-66.51432617 122.46683594 -66.48177734 121.49617188 -66.44824219 120.49609375 C-66.77915908 117.80816851 -66.77915908 117.80816851 -69.18969727 116.13452148 C-75.229463 113.69626318 -81.56422981 116.06354063 -87.41259766 118.31201172 C-91.08841672 119.94326818 -94.70284869 121.6664376 -98.3125 123.4375 C-99.62940681 124.07042258 -100.94696269 124.70199628 -102.26513672 125.33227539 C-104.9179846 126.60321898 -107.56670359 127.88221265 -110.21240234 129.16796875 C-113.67661967 130.84876015 -117.15729165 132.49242697 -120.64453125 134.125 C-136.30791927 141.47033881 -149.79725546 148.50399031 -162 161.0625 C-164 163 -164 163 -166 163 C-166.25394531 163.56203125 -166.50789062 164.1240625 -166.76953125 164.703125 C-169.19952844 169.23911975 -172.73850825 173.0430431 -176 177 C-176.53625 177.68578125 -177.0725 178.3715625 -177.625 179.078125 C-181.10879253 183.36318981 -185.03267532 186.69387875 -189.4375 190 C-201.81000471 199.3003726 -209.7090855 210.44460853 -218.125 223.25 C-221.19246529 227.90983158 -224.53610031 232.20414543 -228.07421875 236.51171875 C-230.03511579 239.04537274 -231.70547453 241.6419829 -233.375 244.375 C-235.96973403 248.57882538 -238.85831463 252.37488995 -242.0625 256.125 C-248.74189258 263.98559566 -253.66107858 271.9642707 -258.10986328 281.24121094 C-263.78177627 292.9887318 -263.78177627 292.9887318 -269 296 C-271.578125 296.73046875 -271.578125 296.73046875 -274.25 297.1875 C-275.58804688 297.42533203 -275.58804688 297.42533203 -276.953125 297.66796875 C-277.62859375 297.77753906 -278.3040625 297.88710938 -279 298 C-277.02 299.485 -277.02 299.485 -275 301 C-275.44131164 306.28771585 -277.44973958 309.66865922 -280.5625 313.8125 C-281.00706543 314.41980957 -281.45163086 315.02711914 -281.90966797 315.65283203 C-285.65097894 320.69512012 -289.68177825 325.44053681 -294 330 C-294.66 329.67 -295.32 329.34 -296 329 C-296.5625 326.76953125 -296.5625 326.76953125 -297 323.8125 C-297.16371094 322.72066406 -297.32742188 321.62882812 -297.49609375 320.50390625 C-297.66238281 319.34761719 -297.82867187 318.19132812 -298 317 C-298.17660156 315.89527344 -298.35320312 314.79054688 -298.53515625 313.65234375 C-303.18692302 283.63983371 -302.09068963 251.70943577 -296 222 C-295.75894531 220.74058594 -295.51789063 219.48117188 -295.26953125 218.18359375 C-288.12891338 183.24462957 -272.90811888 146.17328221 -251 118 C-250.0837336 116.74995813 -249.17125768 115.4971328 -248.26171875 114.2421875 C-242.38380408 106.1788943 -236.20261952 98.68406027 -229.30078125 91.4765625 C-226.99830329 89.23088237 -226.99830329 89.23088237 -226 87 C-225.34 87 -224.68 87 -224 87 C-223.77828125 86.45472656 -223.5565625 85.90945312 -223.328125 85.34765625 C-221.57929892 82.25634897 -219.25490353 79.91504952 -216.75 77.4375 C-216.22059814 76.9122876 -215.69119629 76.3870752 -215.14575195 75.84594727 C-209.16891387 70.03307323 -202.67142079 64.98304089 -196 60 C-195.08879395 59.31357422 -195.08879395 59.31357422 -194.15917969 58.61328125 C-159.20839492 32.33117453 -120.06405517 13.69036022 -77 5 C-75.20236206 4.63007935 -75.20236206 4.63007935 -73.3684082 4.25268555 C-63.46245652 2.29802958 -53.62379474 1.05993429 -43.5625 0.25 C-42.78141876 0.185849 -42.00033752 0.121698 -41.19558716 0.05560303 C-27.36398616 -1.05449536 -13.84092958 -1.19803017 0 0 Z " fill="#8AA6F8" transform="translate(310,11)"/>
<path d="M0 0 C3.16667407 2.4224327 6.1375092 4.9109872 8.8125 7.875 C8.8125 8.535 8.8125 9.195 8.8125 9.875 C12.73919839 9.32419615 14.44349887 7.51273152 17.1875 4.75 C30.90567246 -7.88357318 50.37703864 -12.59339511 68.6640625 -12.3984375 C87.37717935 -11.47421999 103.28525925 -5.37087415 116.8125 7.875 C125.41748345 18.19457047 132.86851769 32.14677007 131.8125 45.875 C132.4725 45.875 133.1325 45.875 133.8125 45.875 C133.97105469 45.32972656 134.12960937 44.78445313 134.29296875 44.22265625 C137.47908657 33.92498263 142.786337 25.99529345 149.8125 17.875 C150.40675781 17.1840625 151.00101563 16.493125 151.61328125 15.78125 C169.42424128 -3.44085676 197.63625051 -11.17788711 223.05078125 -12.37890625 C251.59211643 -12.8023682 279.17987913 -5.4867664 300.43359375 14.40234375 C316.47484707 31.07576469 323.69275308 52.04813677 324.5 74.8125 C324.54705078 75.83923828 324.59410156 76.86597656 324.64257812 77.92382812 C324.94475446 85.47823661 324.94475446 85.47823661 323.8125 88.875 C285.2025 88.875 246.5925 88.875 206.8125 88.875 C207.88661581 95.31969487 209.16292625 98.44234349 213.8125 102.875 C219.99929036 106.68717031 226.65255502 107.97321712 233.8125 106.875 C240.91346841 104.97727338 240.91346841 104.97727338 246.8125 100.875 C249.22176234 100.68734227 251.51498397 100.62299019 253.92431641 100.64794922 C254.65612625 100.64765717 255.3879361 100.64736511 256.141922 100.64706421 C258.56608854 100.64845999 260.98994951 100.6640326 263.4140625 100.6796875 C265.09272087 100.68341675 266.77138141 100.68626414 268.45004272 100.68826294 C272.87241607 100.69590631 277.29465845 100.71556078 281.71697998 100.7376709 C286.22796863 100.75811421 290.7389784 100.76726141 295.25 100.77734375 C304.10422427 100.79880606 312.95835125 100.83295045 321.8125 100.875 C321.34372342 102.48318958 320.87135351 104.09033202 320.39746094 105.69702148 C320.13479431 106.59210922 319.87212769 107.48719696 319.60150146 108.40940857 C313.89899238 126.22947376 296.89506515 140.30252685 280.9375 148.5625 C269.58138458 154.12907352 258.18407423 156.80427809 245.8125 158.875 C244.87011475 159.04773438 243.92772949 159.22046875 242.95678711 159.3984375 C220.39642361 162.81778912 196.39814261 159.61576295 175.8125 149.875 C174.86503906 149.43542969 173.91757813 148.99585938 172.94140625 148.54296875 C153.18283302 138.5919892 143.18021549 124.94867605 133.8125 104.875 C133.4825 121.705 133.1525 138.535 132.8125 155.875 C106.0825 155.875 79.3525 155.875 51.8125 155.875 C51.83570313 149.78289062 51.85890625 143.69078125 51.8828125 137.4140625 C51.89303899 133.54036029 51.90266747 129.66667486 51.91015625 125.79296875 C51.92208315 119.6527966 51.93614942 113.51268444 51.96337891 107.37255859 C51.98520803 102.41884074 51.99708978 97.46518729 52.00225449 92.51142502 C52.00593223 90.62732302 52.01311368 88.7432243 52.02396011 86.85914993 C52.89036853 69.98128329 52.89036853 69.98128329 46.8125 54.875 C43.27507921 52.12367272 39.08765762 52.52079619 34.8125 52.875 C31.46776764 53.10044336 31.46776764 53.10044336 28.8125 54.875 C25.83761147 60.7639001 25.36889371 66.8615217 25.38012695 73.34204102 C25.3699353 74.24068375 25.35974365 75.13932648 25.34924316 76.06520081 C25.31931292 79.00316769 25.30987795 81.94080747 25.30078125 84.87890625 C25.28391974 86.9287167 25.26576753 88.9785169 25.24638367 91.02830505 C25.19903747 96.39906614 25.16912874 101.76978565 25.14294434 107.14068604 C25.10779839 113.59785671 25.0508296 120.05486785 24.99755096 126.51190948 C24.91921756 136.29958562 24.86847523 146.0870555 24.8125 155.875 C-0.5975 155.875 -26.0075 155.875 -52.1875 155.875 C-52.15269531 149.80609375 -52.11789062 143.7371875 -52.08203125 137.484375 C-52.06668708 133.61978193 -52.0522441 129.75522688 -52.04101562 125.890625 C-52.02314212 119.76814896 -52.00208917 113.64580862 -51.96118164 107.5234375 C-51.92837901 102.58266979 -51.91060323 97.64204778 -51.90286827 92.7011795 C-51.89736206 90.82429972 -51.88661066 88.94742712 -51.87030983 87.07061005 C-51.2119035 70.92226146 -51.2119035 70.92226146 -56.391922 56.04974365 C-59.14125579 53.29234782 -61.94264485 52.53315645 -65.6875 52.3125 C-70.18644756 52.61545943 -72.89293039 53.65887252 -76.1875 56.875 C-79.00580639 62.8188477 -79.63138354 68.66798293 -79.61987305 75.15844727 C-79.6300647 76.03758286 -79.64025635 76.91671844 -79.65075684 77.82249451 C-79.68067744 80.69553168 -79.69012052 83.56823432 -79.69921875 86.44140625 C-79.71608098 88.44637644 -79.73423329 90.45133616 -79.75361633 92.45628357 C-79.8009547 97.70867642 -79.83086845 102.9610268 -79.85705566 108.21356201 C-79.88694298 113.58321518 -79.93344514 118.95272223 -79.97851562 124.32226562 C-80.06436474 134.83976706 -80.13179158 145.35729872 -80.1875 155.875 C-90.60092925 155.89812359 -101.01435244 155.91591517 -111.42780209 155.92681217 C-116.26266827 155.93204097 -121.09751694 155.93913854 -125.93237305 155.95043945 C-130.5942712 155.96126847 -135.25615246 155.96727686 -139.91806221 155.96987724 C-141.70074288 155.97173147 -143.48342259 155.97535203 -145.26609612 155.98073006 C-147.7541596 155.98794069 -150.24215243 155.98899093 -152.73022461 155.98852539 C-153.47468842 155.99212067 -154.21915222 155.99571594 -154.98617554 155.99942017 C-160.07344784 155.98905216 -160.07344784 155.98905216 -161.1875 154.875 C-161.28652678 152.80394105 -161.31382325 150.72944607 -161.31448364 148.65602112 C-161.31604363 147.99912589 -161.31760362 147.34223067 -161.31921089 146.66542953 C-161.3232227 144.44823603 -161.32003055 142.23111012 -161.31689453 140.01391602 C-161.31824851 138.43082641 -161.32002842 136.84773712 -161.32220459 135.26464844 C-161.32677975 130.95271961 -161.32498893 126.64081459 -161.3218255 122.32888532 C-161.31930189 117.82545229 -161.32163949 113.32202136 -161.32321167 108.81858826 C-161.32503355 101.25332267 -161.32262678 93.68806684 -161.31787109 86.12280273 C-161.3124304 77.36651978 -161.31418966 68.61026012 -161.3196975 59.85397774 C-161.32423045 52.34825394 -161.32487822 44.84253716 -161.32225883 37.33681244 C-161.32069681 32.84868388 -161.32050021 28.36056629 -161.32379532 23.87243843 C-161.3266766 19.65279929 -161.32469357 15.43319026 -161.31890106 11.21355438 C-161.31757477 9.66150144 -161.31796538 8.10944598 -161.32016373 6.55739403 C-161.32288038 4.44521556 -161.31948773 2.33313471 -161.31448364 0.22096252 C-161.31410662 -0.96316443 -161.31372959 -2.14729139 -161.31334114 -3.36730099 C-161.1875 -6.125 -161.1875 -6.125 -160.1875 -8.125 C-141.3775 -8.125 -122.5675 -8.125 -103.1875 -8.125 C-100.8775 -2.515 -98.5675 3.095 -96.1875 8.875 C-95.1975 8.875 -94.2075 8.875 -93.1875 8.875 C-93.1875 8.215 -93.1875 7.555 -93.1875 6.875 C-81.25728046 -2.96525407 -69.46544916 -8.41705212 -54.1875 -11.125 C-53.18332031 -11.31191406 -52.17914062 -11.49882812 -51.14453125 -11.69140625 C-33.27210189 -14.3120663 -14.72152526 -10.49300205 0 0 Z M211.00390625 47.00390625 C208.1972558 50.93840238 206.8125 52.92789701 206.8125 57.875 C220.6725 57.875 234.5325 57.875 248.8125 57.875 C247.57533048 50.4519829 245.58338046 47.22422474 239.9375 42.4375 C230.99812728 37.89904923 217.57390189 39.27032607 211.00390625 47.00390625 Z " fill="#8BA7F9" transform="translate(1926.1875,241.125)"/>
<path d="M0 0 C8.45509821 6.13109292 14.14363014 14.13507965 16.71484375 24.34375 C17.01172959 26.32841152 17.13094555 28.24420215 17.1875 30.25 C17.23777344 31.08015625 17.28804687 31.9103125 17.33984375 32.765625 C17.78071822 45.11011012 14.52798914 56.21737169 6.18359375 65.47265625 C-5.17857796 76.34700664 -17.49411511 77.73661832 -32.484375 77.52734375 C-45.84398428 77.05424976 -55.49517852 71.56732148 -64.8125 62.25 C-65.1425 72.48 -65.4725 82.71 -65.8125 93.25 C-40.0725 93.25 -14.3325 93.25 12.1875 93.25 C12.1875 147.37 12.1875 201.49 12.1875 257.25 C-14.2125 257.25 -40.6125 257.25 -67.8125 257.25 C-67.8125 212.37 -67.8125 167.49 -67.8125 121.25 C-86.2925 121.58 -104.7725 121.91 -123.8125 122.25 C-124.3075 189.075 -124.3075 189.075 -124.8125 257.25 C-146.0665625 257.2809375 -146.0665625 257.2809375 -167.75 257.3125 C-174.47105103 257.32615601 -174.47105103 257.32615601 -181.32788086 257.34008789 C-186.78234863 257.34460449 -186.78234863 257.34460449 -189.33253479 257.34544373 C-191.1208267 257.34698339 -192.90911755 257.35050877 -194.69740295 257.35557556 C-197.39976822 257.36285215 -200.10206983 257.36390745 -202.80444336 257.36352539 C-203.60652442 257.3671235 -204.40860548 257.37072161 -205.23499203 257.37442875 C-210.69847366 257.36402634 -210.69847366 257.36402634 -211.8125 256.25 C-211.90879597 254.50373476 -211.93437539 252.75354095 -211.93275452 251.00462341 C-211.93412918 249.86733795 -211.93550385 248.73005249 -211.93692017 247.55830383 C-211.93152725 245.6701722 -211.93152725 245.6701722 -211.92602539 243.74389648 C-211.92617142 242.42701843 -211.92631744 241.11014038 -211.9264679 239.75335693 C-211.92675587 236.13161732 -211.92085924 232.50991054 -211.91389394 228.88817859 C-211.9076603 225.10718116 -211.90705659 221.32618305 -211.90586853 217.54518127 C-211.90275524 210.3805571 -211.89454189 203.2159481 -211.88451904 196.05133063 C-211.87335782 187.89668838 -211.86784743 179.74204543 -211.86282361 171.58739746 C-211.85235928 154.80825607 -211.83475989 138.02912997 -211.8125 121.25 C-212.53690781 121.25222061 -213.26131561 121.25444122 -214.00767517 121.25672913 C-220.82093453 121.27673227 -227.63418953 121.29197425 -234.44747066 121.30181217 C-237.95058885 121.30703989 -241.45368285 121.3141355 -244.95678711 121.32543945 C-248.98030841 121.33834206 -253.00380414 121.34322912 -257.02734375 121.34765625 C-258.29086166 121.35281754 -259.55437958 121.35797882 -260.85618591 121.36329651 C-262.017314 121.36337204 -263.17844208 121.36344757 -264.37475586 121.36352539 C-265.40289902 121.365746 -266.43104218 121.36796661 -267.49034119 121.37025452 C-269.8125 121.25 -269.8125 121.25 -270.8125 120.25 C-270.91273555 117.91285675 -270.94869203 115.60525675 -270.94189453 113.26757812 C-270.94364685 112.5375206 -270.94539917 111.80746307 -270.94720459 111.05528259 C-270.95162299 108.63058122 -270.94868517 106.20595218 -270.9453125 103.78125 C-270.94598554 102.10355617 -270.94695557 100.42586244 -270.94821167 98.74816895 C-270.94968863 95.22744826 -270.94753416 91.7067529 -270.94287109 88.18603516 C-270.9371738 83.66289504 -270.94045282 79.13981426 -270.94644356 74.61667633 C-270.95004923 71.15097605 -270.94891056 67.68528993 -270.94631577 64.21958923 C-270.94564651 62.55134575 -270.94647486 60.88310101 -270.94879532 59.21485901 C-270.95132195 56.88734506 -270.94748113 54.55992852 -270.94189453 52.23242188 C-270.94391876 51.53628281 -270.94594299 50.84014374 -270.94802856 50.12290955 C-270.92676274 45.36426274 -270.92676274 45.36426274 -269.8125 44.25 C-267.27091912 44.13985463 -264.75592596 44.09503841 -262.21336365 44.09178162 C-261.40804941 44.08684364 -260.60273517 44.08190566 -259.77301747 44.07681805 C-257.05367725 44.06136546 -254.33436078 44.05306155 -251.61499023 44.04467773 C-249.67397856 44.0351053 -247.732969 44.0250956 -245.79196167 44.01467896 C-240.50501288 43.98755503 -235.21805508 43.96658615 -229.93107486 43.94667697 C-224.4123715 43.92486343 -218.89369609 43.89745216 -213.37501526 43.87062073 C-202.91672869 43.820631 -192.45842665 43.77571555 -182.00010973 43.73259836 C-170.09702974 43.68327954 -158.1939778 43.62834162 -146.29092491 43.57291877 C-121.79814275 43.45900236 -97.30533371 43.35218446 -72.8125 43.25 C-72.82555176 42.23462158 -72.83860352 41.21924316 -72.85205078 40.1730957 C-72.86260945 38.81982656 -72.87284626 37.46655488 -72.8828125 36.11328125 C-72.8969519 35.11319031 -72.8969519 35.11319031 -72.91137695 34.09289551 C-72.97301656 22.90530699 -69.25146425 13.40120957 -61.84375 5.0234375 C-45.9163179 -10.38462182 -18.38721111 -11.21619878 0 0 Z " fill="#8BA7F9" transform="translate(1745.8125,139.75)"/>
<path d="M0 0 C1.99126999 -0.0713815 3.98170863 -0.17331831 5.96972656 -0.30761719 C21.93342879 -1.36394047 21.93342879 -1.36394047 27.39282227 2.43261719 C31.27963022 6.15527043 34.22091 10.44398482 37.04455566 15.00357056 C38.59879618 17.48364337 40.37264057 19.74458671 42.20458984 22.0246582 C43.22810936 23.37418764 44.24911584 24.7256283 45.26708984 26.0793457 C48.83061352 30.80123564 52.44222755 35.44044571 56.26708984 39.9543457 C59.53133154 38.86626514 59.99295051 38.35034797 61.94677734 35.70043945 C62.45732666 35.01820313 62.96787598 34.3359668 63.49389648 33.63305664 C64.03780029 32.89345703 64.5817041 32.15385742 65.14208984 31.3918457 C66.30275209 29.84209501 67.46557265 28.29395877 68.63037109 26.74731445 C69.2280127 25.95373535 69.8256543 25.16015625 70.44140625 24.3425293 C74.76203829 18.69069423 79.30641024 13.21406446 83.82592773 7.72094727 C85.65548705 5.47824165 87.4590303 3.21442013 89.26708984 0.9543457 C103.45708984 0.9543457 117.64708984 0.9543457 132.26708984 0.9543457 C132.26708984 41.8743457 132.26708984 82.7943457 132.26708984 124.9543457 C115.10708984 124.9543457 97.94708984 124.9543457 80.26708984 124.9543457 C80.26708984 112.7443457 80.26708984 100.5343457 80.26708984 87.9543457 C76.96708984 92.2443457 73.66708984 96.5343457 70.26708984 100.9543457 C66.41093615 102.88242255 61.69659152 102.22623943 57.45458984 102.2668457 C56.45621094 102.29584961 55.45783203 102.32485352 54.42919922 102.35473633 C47.0734858 102.41844337 47.0734858 102.41844337 43.26708984 100.2277832 C41.30031034 97.99210806 39.64177946 95.80069214 38.07958984 93.2668457 C36.21196635 90.02821287 36.21196635 90.02821287 33.26708984 87.9543457 C33.37537109 88.83606445 33.37537109 88.83606445 33.48583984 89.7355957 C34.27606926 97.37448008 34.37849698 104.96641013 34.39208984 112.6418457 C34.39660156 113.72981445 34.40111328 114.8177832 34.40576172 115.9387207 C34.40382813 116.95836914 34.40189453 117.97801758 34.39990234 119.02856445 C34.39877441 119.95241943 34.39764648 120.87627441 34.39648438 121.828125 C34.26708984 123.9543457 34.26708984 123.9543457 33.26708984 124.9543457 C31.64034207 125.04775004 30.00954933 125.07179741 28.38012695 125.06787109 C27.33912338 125.06779556 26.29811981 125.06772003 25.22557068 125.06764221 C24.09329544 125.06248093 22.9610202 125.05731964 21.79443359 125.05200195 C20.64165421 125.05058701 19.48887482 125.04917206 18.30116272 125.04771423 C14.60227921 125.04209576 10.9034552 125.02954012 7.20458984 125.0168457 C4.70393967 125.01183308 2.20328856 125.00726977 -0.29736328 125.00317383 C-6.44256604 124.99212032 -12.58773385 124.97536422 -18.73291016 124.9543457 C-18.75623932 108.93441033 -18.77388942 92.91448044 -18.78472233 76.8945322 C-18.78988525 69.4567006 -18.79692787 62.01887953 -18.80834961 54.58105469 C-18.81829657 48.10053228 -18.82476361 41.62001751 -18.82699865 35.13948768 C-18.82830574 31.70604028 -18.83139146 28.2726147 -18.83864021 24.83917427 C-18.84665432 21.0124075 -18.84690129 17.18566235 -18.84643555 13.35888672 C-18.85003082 12.21234116 -18.8536261 11.06579559 -18.85733032 9.88450623 C-18.85595566 8.84819061 -18.85458099 7.811875 -18.85316467 6.74415588 C-18.85408647 5.83803338 -18.85500826 4.93191088 -18.85595798 3.99833012 C-18.51490118 -1.66706677 -4.57658657 0.13021594 0 0 Z M-8.73291016 10.9543457 C-8.73291016 45.9343457 -8.73291016 80.9143457 -8.73291016 116.9543457 C2.15708984 116.9543457 13.04708984 116.9543457 24.26708984 116.9543457 C24.35796875 112.3156543 24.35796875 112.3156543 24.45068359 107.58325195 C24.51242093 104.60137354 24.57583016 101.61953507 24.6394043 98.63769531 C24.68282318 96.55895513 24.72449296 94.48017767 24.7644043 92.40136719 C24.82193906 89.42021425 24.88568103 86.43925021 24.95068359 83.45825195 C24.96739609 82.52284073 24.98410858 81.5874295 25.00132751 80.62367249 C25.02127274 79.76285568 25.04121796 78.90203888 25.06176758 78.01513672 C25.07731186 77.25346695 25.09285614 76.49179718 25.10887146 75.70704651 C25.26708984 73.9543457 25.26708984 73.9543457 26.26708984 72.9543457 C28.11996486 72.88208069 29.97542862 72.87053351 31.82958984 72.8918457 C32.84150391 72.90086914 33.85341797 72.90989258 34.89599609 72.91918945 C36.0696875 72.9365918 36.0696875 72.9365918 37.26708984 72.9543457 C37.51201172 73.62852539 37.75693359 74.30270508 38.00927734 74.99731445 C39.5397082 78.59525284 41.42552292 81.89310633 43.39208984 85.2668457 C43.76462891 85.91202148 44.13716797 86.55719727 44.52099609 87.22192383 C45.43341197 88.80110516 46.34984494 90.37796434 47.26708984 91.9543457 C57.75530404 93.25799408 57.75530404 93.25799408 67.48193359 90.5246582 C68.9471493 88.40965118 70.08744731 86.24058788 71.26708984 83.9543457 C72.61855091 82.07242951 74.03985305 80.23923422 75.51708984 78.4543457 C76.18224609 77.5984082 76.84740234 76.7424707 77.53271484 75.8605957 C80.26708984 73.9543457 80.26708984 73.9543457 90.26708984 73.9543457 C90.26708984 88.1443457 90.26708984 102.3343457 90.26708984 116.9543457 C101.15708984 116.9543457 112.04708984 116.9543457 123.26708984 116.9543457 C123.26708984 81.9743457 123.26708984 46.9943457 123.26708984 10.9543457 C96.8259368 8.03570021 96.8259368 8.03570021 88.07958984 15.6418457 C86.74122746 17.70371884 85.47150032 19.81146677 84.26708984 21.9543457 C83.03895469 23.63021241 81.75427939 25.2486752 80.45629883 26.87084961 C79.15745517 28.49760123 77.89972455 30.14910926 76.64990234 31.8137207 C74.48264358 34.67023881 72.26832026 37.47634717 70.01708984 40.2668457 C66.66859545 44.42524017 63.43564647 48.65759088 60.26708984 52.9543457 C52.31616004 51.91429292 48.08236087 45.10778262 43.44360352 39.09985352 C42.14698014 37.39826336 40.8585324 35.69075013 39.57177734 33.98168945 C37.42536841 31.16225399 35.24641784 28.47795183 32.79833984 25.91918945 C31.26708984 23.9543457 31.26708984 23.9543457 29.73583984 20.64575195 C27.56385919 16.18405075 27.56385919 16.18405075 21.26708984 10.9543457 C11.36708984 10.9543457 1.46708984 10.9543457 -8.73291016 10.9543457 Z " fill="#8AA6F9" transform="translate(1314.73291015625,430.045654296875)"/>
<path d="M0 0 C14.36364283 10.23377084 23.02927632 22.8688608 26.1328125 40.484375 C28.77279296 58.15875513 26.73221016 76.15873528 16.02734375 91.00390625 C5.06314744 104.96514938 -8.46256843 114.18509812 -26.359375 116.90625 C-46.77402878 118.63143201 -68.08938085 117.35533407 -85 104.4375 C-97.72852407 93.40193233 -106.93559449 79.72094763 -108.55859375 62.55859375 C-109.62912156 42.86737018 -106.67718033 25.50636439 -93.6875 10.1875 C-69.78410515 -14.65328288 -29.03648813 -18.5189387 0 0 Z M-90.41162109 18.56884766 C-100.69010159 31.60871097 -101.72105332 47.88805861 -99.9375 63.6875 C-99.05111575 69.81883382 -97.83730751 74.85170621 -94.6875 80.1875 C-94.22730469 80.97253906 -93.76710938 81.75757813 -93.29296875 82.56640625 C-84.89368912 95.62514027 -73.72220779 104.27392383 -58.6875 108.1875 C-52.39685945 109.43194179 -46.08174921 109.88004133 -39.6875 110.1875 C-37.99947266 110.30931641 -37.99947266 110.30931641 -36.27734375 110.43359375 C-20.56823203 111.11659861 -7.60567849 103.30765064 4.1875 93.625 C12.07405719 86.17594525 16.40876205 75.77191863 18.3125 65.1875 C18.3125 59.9075 18.3125 54.6275 18.3125 49.1875 C-1.1575 49.1875 -20.6275 49.1875 -40.6875 49.1875 C-40.6875 53.4775 -40.6875 57.7675 -40.6875 62.1875 C-32.7675 62.5175 -24.8475 62.8475 -16.6875 63.1875 C-19 74.75 -19 74.75 -23.6875 78.1875 C-31.61490532 82.23047671 -39.94020408 82.44379302 -48.6875 81.1875 C-56.13986409 78.60889058 -61.94244006 73.18705783 -65.71484375 66.31640625 C-68.97172817 58.85709032 -68.56467588 50.95154338 -65.734375 43.421875 C-61.68625963 34.78186758 -56.50819491 29.02303914 -47.6875 25.1875 C-38.85058737 23.92087586 -31.86200218 24.6128401 -24.4453125 29.6796875 C-22.6875 31.1875 -22.6875 31.1875 -21.6875 33.1875 C-9.8075 33.1875 2.0725 33.1875 14.3125 33.1875 C9.49220189 18.72660567 -0.05039862 8.07744913 -13.6875 1.1875 C-39.22209814 -9.65508062 -72.39670999 -2.1731201 -90.41162109 18.56884766 Z M-55.6875 38.1875 C-60.20211867 44.37526808 -61.55339791 50.6710251 -60.6875 58.1875 C-58.97208305 63.93974052 -56.41660368 68.38114826 -51.6875 72.1875 C-47.74776358 74.13684875 -44.49847716 74.45777104 -40.125 74.4375 C-38.45244141 74.44523438 -38.45244141 74.44523438 -36.74609375 74.453125 C-33.82194628 74.19917605 -32.15664032 73.70882851 -29.6875 72.1875 C-29.6875 71.5275 -29.6875 70.8675 -29.6875 70.1875 C-36.2875 70.1875 -42.8875 70.1875 -49.6875 70.1875 C-49.6875 60.6175 -49.6875 51.0475 -49.6875 41.1875 C-37.8125 41.3125 -37.8125 41.3125 -34.07080078 41.36767578 C-33.10126465 41.3726709 -32.13172852 41.37766602 -31.1328125 41.3828125 C-29.64031982 41.39852295 -29.64031982 41.39852295 -28.11767578 41.41455078 C-25.50578583 41.43129401 -25.50578583 41.43129401 -23.6875 39.1875 C-33.95904558 31.24708533 -45.12185004 29.30274889 -55.6875 38.1875 Z " fill="#8AA6F9" transform="translate(1960.6875,439.8125)"/>
<path d="M0 0 C14.19 0 28.38 0 43 0 C55.80597015 17.46268657 55.80597015 17.46268657 61.0625 24.75 C61.61615234 25.51570313 62.16980469 26.28140625 62.74023438 27.0703125 C64.87151962 30.02251806 66.9799142 32.96987131 69 36 C69.33 24.12 69.66 12.24 70 0 C87.16 0 104.32 0 122 0 C122 40.92 122 81.84 122 124 C107.48 124 92.96 124 78 124 C68.78165394 114.78165394 68.78165394 114.78165394 66.08789062 107.56640625 C64.30306093 103.35587443 61.51927275 99.99216546 58.6875 96.4375 C54 90.30598716 54 90.30598716 54 88 C53.34 88 52.68 88 52 88 C52 99.88 52 111.76 52 124 C34.51 124 17.02 124 -1 124 C-0.67 83.08 -0.34 42.16 0 0 Z M9 9 C9 43.98 9 78.96 9 115 C20.22 115 31.44 115 43 115 C43.33 101.47 43.66 87.94 44 74 C46.50676575 72.74661712 47.58335435 73.05336527 50.3125 73.5625 C51.07175781 73.68753906 51.83101562 73.81257813 52.61328125 73.94140625 C58.80242105 76.68650754 62.60978696 84.7390695 66.25 90.1875 C72.54425954 99.49508277 79.03168898 108.03168898 87 116 C95.58 116 104.16 116 113 116 C113 81.02 113 46.04 113 10 C101.78 10 90.56 10 79 10 C78.67 23.86 78.34 37.72 78 52 C71 52 71 52 68.69921875 50.26953125 C68.03535156 49.45871094 67.37148437 48.64789063 66.6875 47.8125 C65.92824219 46.89726562 65.16898438 45.98203125 64.38671875 45.0390625 C63.59910156 44.03617187 62.81148437 43.03328125 62 42 C61.18144531 40.97648437 60.36289063 39.95296875 59.51953125 38.8984375 C54.44564122 32.47433334 49.71493909 25.83317517 45.10546875 19.0703125 C42.78205757 15.68218414 40.38786723 12.34301412 38 9 C28.43 9 18.86 9 9 9 Z " fill="#8AA6F9" transform="translate(1595,431)"/>
<path d="M0 0 C31.68 0 63.36 0 96 0 C96 12.87 96 25.74 96 39 C81.48 39 66.96 39 52 39 C52 40.32 52 41.64 52 43 C65.2 43 78.4 43 92 43 C92 55.21 92 67.42 92 80 C78.8 80 65.6 80 52 80 C52 81.65 52 83.3 52 85 C66.85 85 81.7 85 97 85 C97 97.87 97 110.74 97 124 C64.99 124 32.98 124 0 124 C0 83.08 0 42.16 0 0 Z M9 9 C9 44.31 9 79.62 9 116 C35.07 116 61.14 116 88 116 C88 108.74 88 101.48 88 94 C84.99132813 93.95101562 81.98265625 93.90203125 78.8828125 93.8515625 C75.97699905 93.79759174 73.07126981 93.74026893 70.16552734 93.68261719 C68.14215334 93.64427479 66.11870994 93.60943129 64.09521484 93.578125 C61.19082797 93.53258831 58.28692106 93.47457591 55.3828125 93.4140625 C54.47443634 93.40251129 53.56606018 93.39096008 52.63015747 93.37905884 C51.78943695 93.35918915 50.94871643 93.33931946 50.08251953 93.31884766 C49.34083527 93.30552399 48.599151 93.29220032 47.83499146 93.2784729 C46 93 46 93 44 91 C43.80106201 88.47524284 43.72152565 86.08485251 43.75 83.5625 C43.73839844 82.5405957 43.73839844 82.5405957 43.7265625 81.49804688 C43.74110566 77.78590558 43.89059582 76.16410628 46 73 C48.75900757 72.66222851 51.30483257 72.51102021 54.0703125 72.48828125 C54.86654022 72.47033005 55.66276794 72.45237885 56.48312378 72.43388367 C59.0303617 72.37963031 61.57741071 72.34583788 64.125 72.3125 C65.8502868 72.27934007 67.57554861 72.24485166 69.30078125 72.20898438 C73.53388358 72.1213889 77.7661137 72.0614528 82 72 C82 65.4 82 58.8 82 52 C63.685 51.505 63.685 51.505 45 51 C43.35161056 47.70322112 43.85727262 44.05683956 43.875 40.4375 C43.86919922 39.24737305 43.86919922 39.24737305 43.86328125 38.03320312 C43.87336933 32.12663067 43.87336933 32.12663067 45 31 C48.10085221 30.83958807 51.18187579 30.74036598 54.28515625 30.68359375 C55.68138466 30.6524221 55.68138466 30.6524221 57.1058197 30.62062073 C60.09130182 30.55502069 63.07687484 30.49619198 66.0625 30.4375 C68.08138976 30.3943247 70.1002702 30.35071075 72.11914062 30.30664062 C77.07933513 30.19849982 82.03959451 30.09950451 87 30 C87 23.07 87 16.14 87 9 C61.26 9 35.52 9 9 9 Z " fill="#8AA6FA" transform="translate(1993,431)"/>
<path d="M0 0 C17.4178125 -0.061875 17.4178125 -0.061875 35.1875 -0.125 C38.8280542 -0.14320801 42.4686084 -0.16141602 46.21948242 -0.18017578 C50.7310791 -0.18920898 50.7310791 -0.18920898 52.85591125 -0.19088745 C54.31201914 -0.19392025 55.76812262 -0.2008726 57.22419739 -0.21115112 C76.22674712 -0.3383612 93.47206137 1.47331962 108.00390625 14.84375 C116.8847523 24.20412338 119.91982922 35.89059513 120.03125 48.55078125 C119.41871055 62.56262107 114.22475546 72.04078779 106 83 C106.7724707 84.70313354 106.7724707 84.70313354 107.56054688 86.44067383 C109.46707934 90.64809357 111.36624402 94.85880426 113.26318359 99.07055664 C114.08571522 100.89405697 114.91025063 102.71665482 115.73681641 104.53833008 C116.92356042 107.1547231 118.10309479 109.77426161 119.28125 112.39453125 C119.83903137 113.61811089 119.83903137 113.61811089 120.40808105 114.8664093 C120.74843384 115.62697128 121.08878662 116.38753326 121.43945312 117.17114258 C121.7414563 117.83954666 122.04345947 118.50795074 122.35461426 119.1966095 C123 121 123 121 123 124 C104.19 124 85.38 124 66 124 C58 104 58 104 55 96 C54.01 95.505 54.01 95.505 53 95 C53 104.57 53 114.14 53 124 C35.51 124 18.02 124 0 124 C0 83.08 0 42.16 0 0 Z M9 9 C9 44.31 9 79.62 9 116 C20.22 116 31.44 116 43 116 C43.24956715 107.20462259 43.24956715 107.20462259 43.47802734 98.40869141 C43.5136377 97.31733887 43.54924805 96.22598633 43.5859375 95.1015625 C43.6173584 93.98088379 43.6487793 92.86020508 43.68115234 91.70556641 C44 89 44 89 46 87 C49.15234375 86.69921875 49.15234375 86.69921875 52.9375 86.6875 C54.18402344 86.67074219 55.43054687 86.65398437 56.71484375 86.63671875 C60 87 60 87 61.82421875 88.1171875 C63.48397558 90.77500409 64.11016322 93.40184251 64.875 96.4375 C66.64802328 103.4577138 69.10762651 109.05830364 72 116 C84.87 116 97.74 116 111 116 C109.61580323 111.84740969 108.21895993 108.07831528 106.43359375 104.12109375 C105.94826172 103.03505859 105.46292969 101.94902344 104.96289062 100.83007812 C103.94384533 98.56364833 102.92300395 96.29802526 101.90039062 94.03320312 C101.41634766 92.94845703 100.93230469 91.86371094 100.43359375 90.74609375 C99.76928345 89.27160767 99.76928345 89.27160767 99.09155273 87.76733398 C98.05362718 85.13595708 97.31669852 82.81005662 97 80 C98.4765625 77.96484375 98.4765625 77.96484375 100.625 75.9375 C106.87767329 69.37821576 110.47541427 61.09281924 111 52 C111.0825 50.824375 111.165 49.64875 111.25 48.4375 C110.98543672 36.05112836 107.40319264 26.51455251 98.75390625 17.71484375 C92.38668394 11.79858828 87.14141149 8.52227763 78.25048828 8.65942383 C77.48652678 8.65906222 76.72256527 8.65870062 75.93545341 8.65832806 C73.48013314 8.66055442 71.0255094 8.68334019 68.5703125 8.70703125 C67.047448 8.71144609 65.52457895 8.71450417 64.00170898 8.71618652 C58.37606957 8.73186903 52.75052783 8.77375292 47.125 8.8125 C28.253125 8.9053125 28.253125 8.9053125 9 9 Z " fill="#8AA6F9" transform="translate(2099,431)"/>
<path d="M0 0 C18.48 0 36.96 0 56 0 C60.49975812 8.99951623 60.49975812 8.99951623 61.62475586 12.26831055 C62.01259247 13.38177353 62.01259247 13.38177353 62.40826416 14.51773071 C62.80752106 15.69037979 62.80752106 15.69037979 63.21484375 16.88671875 C63.5067157 17.72907074 63.79858765 18.57142273 64.0993042 19.43930054 C65.05028553 22.1870297 65.99380428 24.93726114 66.9375 27.6875 C67.60524697 29.61992764 68.27363152 31.55213508 68.94262695 33.48413086 C70.30668825 37.42400981 71.66864921 41.36460502 73.02929688 45.30566406 C75.62432528 52.81354586 78.25468298 60.30889956 80.89202881 67.80200195 C81.68424453 70.05324891 82.47530677 72.30489831 83.26611328 74.55664062 C85.70092562 81.48642569 88.14409536 88.4131349 90.60398865 95.33406067 C91.73723118 98.52245839 92.86851589 101.71154969 93.99990845 104.90060425 C94.79599453 107.14104827 95.59555895 109.38023035 96.39526367 111.61938477 C96.87435065 112.96885439 97.35328218 114.31837921 97.83203125 115.66796875 C98.25202393 116.84641357 98.6720166 118.0248584 99.10473633 119.23901367 C100 122 100 122 100 124 C81.52 124 63.04 124 44 124 C41 114 41 114 41 111 C28.625 111.495 28.625 111.495 16 112 C14.68 115.96 13.36 119.92 12 124 C-6.15 124 -24.3 124 -43 124 C-41.26149161 117.62546923 -39.61149893 111.58651934 -37.42578125 105.4140625 C-37.18513443 104.73114136 -36.94448761 104.04822021 -36.69654846 103.34460449 C-35.90565816 101.10337476 -35.10914969 98.86418832 -34.3125 96.625 C-33.74269372 95.01426893 -33.17320335 93.40342608 -32.60400391 91.79248047 C-31.06557111 87.44236893 -29.52177562 83.09418066 -27.97625732 78.74658203 C-26.9849315 75.9576066 -25.99454261 73.16830001 -25.00439453 70.37890625 C-21.29189801 59.92135948 -17.57339117 49.4659619 -13.8513031 39.01182556 C-9.22332297 26.01174307 -4.61278189 13.00548228 0 0 Z M6 10 C4.02 15.94 2.04 21.88 0 28 C-1.50485663 32.21557538 -3.01998625 36.42355225 -4.5625 40.625 C-7.1110906 47.62459036 -9.59131052 54.61978323 -11.75 61.75 C-13.84539342 68.64405889 -16.35768255 75.30039628 -19 82 C-21.89336956 89.52390749 -24.72777326 97.0732153 -27.375 104.6875 C-27.69210937 105.59886719 -28.00921875 106.51023437 -28.3359375 107.44921875 C-29.20994936 110.36715184 -29.20994936 110.36715184 -29 115 C-17.45 115 -5.9 115 6 115 C8.475 109.06 8.475 109.06 11 103 C15.64477144 102.97527961 20.28950457 102.95713032 24.93432617 102.94506836 C26.51441108 102.94003986 28.09449134 102.93321622 29.67456055 102.92456055 C31.94581246 102.91243008 34.21700285 102.90675687 36.48828125 102.90234375 C37.19463211 102.89718246 37.90098297 102.89202118 38.6287384 102.88670349 C41.70254391 102.88635197 44.0590442 103.0196814 47 104 C48.65 107.63 50.3 111.26 52 115 C63.22 115 74.44 115 86 115 C85.24297741 109.20689295 85.24297741 109.20689295 83.66479492 103.9074707 C83.39749069 103.18594315 83.13018646 102.46441559 82.8547821 101.72102356 C82.5662587 100.9635936 82.27773529 100.20616364 81.98046875 99.42578125 C81.53070427 98.21815376 81.53070427 98.21815376 81.07185364 96.98612976 C80.11699997 94.42572717 79.15274207 91.86900221 78.1875 89.3125 C76.92789403 85.95558116 75.67206353 82.59726256 74.41796875 79.23828125 C73.96363464 78.02276077 73.96363464 78.02276077 73.50012207 76.78268433 C71.18691553 70.56751388 69.03385317 64.3123822 67 58 C66.43078716 56.26526379 65.86049458 54.53088145 65.2890625 52.796875 C65.01682861 51.96978027 64.74459473 51.14268555 64.46411133 50.29052734 C61.63766598 41.73306727 58.68039192 33.25197429 55.45703125 24.8359375 C53.58600413 19.91006985 51.80072701 14.95199928 50 10 C35.48 10 20.96 10 6 10 Z " fill="#8AA6FA" transform="translate(1762,431)"/>
<path d="M0 0 C18.48 0 36.96 0 56 0 C58.60083639 6.50209098 61.09507435 12.95029193 63.36328125 19.5625 C64.00195051 21.40942473 64.6406225 23.25634852 65.27929688 25.10327148 C65.77610962 26.54438797 65.77610962 26.54438797 66.28295898 28.01461792 C72.09136451 44.85737553 77.9889163 61.66605018 84 78.4375 C85.23074188 81.87490224 86.46108565 85.31244695 87.69140625 88.75 C87.97888733 89.55316147 88.26636841 90.35632294 88.56256104 91.18382263 C91.03609436 98.09638344 93.50253296 105.01123401 95.9375 111.9375 C96.26169922 112.84878662 96.58589844 113.76007324 96.91992188 114.69897461 C97.20287109 115.50858643 97.48582031 116.31819824 97.77734375 117.15234375 C98.13687134 118.1731604 98.13687134 118.1731604 98.50366211 119.21459961 C99 121 99 121 99 124 C80.85 124 62.7 124 44 124 C41 116 41 116 40 111 C31.75 111 23.5 111 15 111 C14.01 114.96 13.02 118.92 12 123 C11 124 11 124 8.79173279 124.12025452 C7.81688431 124.11803391 6.84203583 124.11581329 5.83764648 124.11352539 C4.73658066 124.11344986 3.63551483 124.11337433 2.50108337 124.11329651 C1.3031868 124.10813522 0.10529022 124.10297394 -1.12890625 124.09765625 C-2.34827377 124.0962413 -3.5676413 124.09482635 -4.82395935 124.09336853 C-8.7368307 124.08774967 -12.64964581 124.07519396 -16.5625 124.0625 C-19.20768147 124.05748743 -21.85286383 124.0529241 -24.49804688 124.04882812 C-30.99871726 124.03777411 -37.49935461 124.02101764 -44 124 C-37.90617165 105.39446355 -31.6794833 86.85390389 -24.9604187 68.46392822 C-21.4700563 58.90881604 -18.05336768 49.33219511 -14.7265625 39.71875 C-14.36457764 38.67310883 -14.00259277 37.62746765 -13.62963867 36.55014038 C-11.84395681 31.38670313 -10.06472579 26.22111872 -8.29199219 21.05322266 C-7.64005669 19.1630574 -6.98804227 17.27291936 -6.3359375 15.3828125 C-5.89612045 14.091474 -5.89612045 14.091474 -5.44741821 12.77404785 C-5.02944473 11.56549133 -5.02944473 11.56549133 -4.60302734 10.33251953 C-4.24547867 9.28960251 -4.24547867 9.28960251 -3.88070679 8.22561646 C-2.76518732 5.40660958 -1.35581588 2.71163176 0 0 Z M6 10 C-0.82165138 25.85313349 -6.79217196 41.69349178 -12.07177734 58.11865234 C-13.22979622 61.71332324 -14.42369801 65.29457224 -15.625 68.875 C-16.98148953 72.93979104 -18.33338538 77.00604496 -19.6796875 81.07421875 C-20.28624259 82.90371738 -20.89301638 84.73314351 -21.5 86.5625 C-21.94508911 87.90598511 -21.94508911 87.90598511 -22.39916992 89.27661133 C-24.52542185 95.66239797 -26.77806678 101.98683311 -29.15234375 108.28515625 C-30.19869358 111.16235239 -30.19869358 111.16235239 -30 115 C-18.78 115 -7.56 115 4 115 C5.32 111.04 6.64 107.08 8 103 C9.69066932 101.30933068 11.78641553 101.87203107 14.04206848 101.86105347 C15.0982563 101.86408981 15.0982563 101.86408981 16.17578125 101.8671875 C16.89734909 101.86623077 17.61891693 101.86527405 18.36235046 101.86428833 C19.89317919 101.86360639 21.42401078 101.86546166 22.95483398 101.86962891 C25.29222175 101.8749538 27.62941531 101.86969653 29.96679688 101.86328125 C31.45312542 101.86394249 32.93945385 101.86522459 34.42578125 101.8671875 C35.47286003 101.86415115 35.47286003 101.86415115 36.54109192 101.86105347 C43.34411221 101.89368536 43.34411221 101.89368536 46 103 C47.0625 105.75 47.0625 105.75 48 109 C49.5807868 112.57358013 49.5807868 112.57358013 52.65332031 114.63061523 C55.84684874 115.13330026 58.93905919 115.1109055 62.171875 115.09765625 C62.8542926 115.0962413 63.53671021 115.09482635 64.23980713 115.09336853 C66.40991684 115.08779084 68.5799217 115.07524254 70.75 115.0625 C72.22525892 115.05748211 73.70051947 115.05291971 75.17578125 115.04882812 C78.78388798 115.03782875 82.39193375 115.02057953 86 115 C84.36123116 107.87998654 82.47001647 101.19726687 79.5625 94.5 C74.86382609 83.25408603 71.14431846 71.69130799 67.38891602 60.10546875 C65.07449439 53.00048682 62.67310126 45.98712092 59.83984375 39.0703125 C57.43227895 33.18337014 55.41535174 27.30476898 53.6875 21.1875 C53.19288177 19.47223008 52.69686032 17.75736397 52.19921875 16.04296875 C51.99127686 15.31102295 51.78333496 14.57907715 51.5690918 13.82495117 C51.03153775 11.92918779 51.03153775 11.92918779 50 10 C35.48 10 20.96 10 6 10 Z " fill="#8AA6FA" transform="translate(1493,431)"/>
<path d="M0 0 C2.0078125 0.23046875 2.0078125 0.23046875 5.0078125 2.23046875 C6.0703125 5.25 6.0703125 5.25 7.0078125 9.04296875 C7.25881714 10.03816528 7.25881714 10.03816528 7.51489258 11.0534668 C8.89685024 16.58722296 10.16815148 22.14865643 11.39453125 27.71875 C11.90349929 30.20708628 11.90349929 30.20708628 13.0078125 32.23046875 C13.14196722 34.90283085 13.05099791 37.55297363 13.0078125 40.23046875 C9.03850261 40.25512756 5.06922216 40.27330898 1.09985352 40.28540039 C-0.25139136 40.29043932 -1.60263076 40.29727052 -2.95385742 40.3059082 C-4.89239184 40.31799294 -6.8309655 40.32316703 -8.76953125 40.328125 C-10.52124634 40.33598022 -10.52124634 40.33598022 -12.30834961 40.34399414 C-14.9921875 40.23046875 -14.9921875 40.23046875 -15.9921875 39.23046875 C-15.94140625 37.375 -15.94140625 37.375 -15.6796875 35.04296875 C-15.60105469 34.28628906 -15.52242187 33.52960938 -15.44140625 32.75 C-14.9921875 30.23046875 -14.9921875 30.23046875 -14.0390625 27.390625 C-12.88303203 23.90096587 -12.21438419 20.47075569 -11.5546875 16.85546875 C-8.38608043 0.1701972 -8.38608043 0.1701972 0 0 Z M-1.9921875 17.23046875 C-3.8429323 21.89756434 -5.50061622 26.19186317 -5.9921875 31.23046875 C-4.80794424 32.64624352 -4.80794424 32.64624352 -1.4296875 32.29296875 C0.271875 32.26203125 0.271875 32.26203125 2.0078125 32.23046875 C3.24703473 28.51280207 2.57800192 26.79157338 1.5703125 23.04296875 C1.13912109 21.41294922 1.13912109 21.41294922 0.69921875 19.75 C0.47105469 18.91855469 0.24289062 18.08710938 0.0078125 17.23046875 C-0.6521875 17.23046875 -1.3121875 17.23046875 -1.9921875 17.23046875 Z " fill="#89A6FA" transform="translate(1521.9921875,475.76953125)"/>
<path d="M0 0 C3.40668016 0.49680752 3.93307697 0.81404422 6 3.4375 C7.15087891 6.12963867 7.15087891 6.12963867 8.2265625 9.35546875 C8.6184375 10.52787109 9.0103125 11.70027344 9.4140625 12.90820312 C9.81367187 14.13474609 10.21328125 15.36128906 10.625 16.625 C11.03234375 17.83220703 11.4396875 19.03941406 11.859375 20.28320312 C13.85760325 26.33412941 15.67249699 32.05119133 16 38.4375 C14.16965945 40.26784055 11.26788008 39.56792797 8.8125 39.5703125 C7.55695313 39.57160156 6.30140625 39.57289063 5.0078125 39.57421875 C4.35071289 39.57212402 3.69361328 39.5700293 3.01660156 39.56787109 C1.00838665 39.56252234 -0.99960459 39.56781691 -3.0078125 39.57421875 C-4.26335937 39.57292969 -5.51890625 39.57164062 -6.8125 39.5703125 C-7.97394531 39.56918457 -9.13539062 39.56805664 -10.33203125 39.56689453 C-13 39.4375 -13 39.4375 -14 38.4375 C-14.25285859 33.60405396 -13.72342158 29.6151908 -12.35546875 24.98828125 C-12.00806641 23.81072266 -11.66066406 22.63316406 -11.30273438 21.41992188 C-10.93470703 20.20884766 -10.56667969 18.99777344 -10.1875 17.75 C-9.83107422 16.52732422 -9.47464844 15.30464844 -9.10742188 14.04492188 C-5.12777834 0.74780101 -5.12777834 0.74780101 0 0 Z M0 16.4375 C-0.52782739 18.74860862 -1.04753369 21.06102472 -1.5625 23.375 C-1.71396484 24.03435547 -1.86542969 24.69371094 -2.02148438 25.37304688 C-2.39173308 27.0520817 -2.70072071 28.74437451 -3 30.4375 C-1.81575674 31.85327477 -1.81575674 31.85327477 1.5625 31.5 C3.2640625 31.4690625 3.2640625 31.4690625 5 31.4375 C6.1898617 27.86791489 5.71536834 26.39950589 4.75 22.8125 C4.49734375 21.83023437 4.2446875 20.84796875 3.984375 19.8359375 C3.65953125 19.04445313 3.3346875 18.25296875 3 17.4375 C2.01 17.1075 1.02 16.7775 0 16.4375 Z " fill="#89A6FA" transform="translate(1789,476.5625)"/>
<path d="M0 0 C13.30491245 0.02954146 13.30491245 0.02954146 19.18408203 4.38012695 C23.14989928 9.78216306 22.82594953 14.91866076 22.18408203 21.38012695 C21.18462423 25.26237462 19.61438552 29.13268673 16.18408203 31.38012695 C8.80084055 34.0778498 0.95349023 33.80141895 -6.81591797 33.38012695 C-9.24607834 30.94996658 -7.98914352 25.12237565 -8.00146484 21.72583008 C-8.00138428 21.02337158 -8.00130371 20.32091309 -8.0012207 19.59716797 C-8.00340539 17.45495696 -8.02155309 15.31326224 -8.04052734 13.17114258 C-8.04346156 11.81502455 -8.04544617 10.45890408 -8.04638672 9.1027832 C-8.05049561 7.86278564 -8.05460449 6.62278809 -8.05883789 5.34521484 C-7.61166183 -0.11302959 -4.8658602 0.09849259 0 0 Z M0.18408203 9.38012695 C0.18408203 14.33012695 0.18408203 19.28012695 0.18408203 24.38012695 C6.83029403 24.97577151 6.83029403 24.97577151 12.80908203 22.75512695 C14.6323688 19.60581344 14.84280654 17.96651592 14.18408203 14.38012695 C12.37412087 11.31934457 12.37412087 11.31934457 9.18408203 9.38012695 C6.05735605 8.96706449 3.36036352 9.14309102 0.18408203 9.38012695 Z " fill="#89A6FA" transform="translate(2150.81591796875,462.619873046875)"/>
</svg>
